<svg fill="none" height="180" viewBox="0 0 180 180" width="180" xmlns="http://www.w3.org/2000/svg"><path d="m0 0h180v180h-180z" fill="#fff"/><path d="m79 77h8v27h-8z" fill="#ff5f00"/><path clip-rule="evenodd" d="m146 63h-112v55h112zm-112-8h-8v8 55 8h8 110l10-10v-53-8h-8zm11.66 28.5h6.88c1.3 0 2.462.3656 3.3065 1.1035.8529.7452 1.3335 1.8286 1.3335 3.1565 0 .9443-.2832 1.7382-.7818 2.3526-.2917.3595-.6492.6477-1.0495.8675.4006.2202.7583.5093 1.0502.8707.4987.6175.7811 1.4163.7811 2.3692 0 1.2932-.4891 2.3774-1.3374 3.1333-.8424.7507-2.003 1.1467-3.3026 1.1467h-6.88zm6.62 3.4h-2.98v2.38h2.98c.4833 0 .8232-.1212 1.0348-.3023.1996-.1709.3452-.4461.3452-.8977 0-.4511-.1451-.7194-.3418-.8848-.2105-.177-.5508-.2952-1.0382-.2952zm0 5.78h-2.98v2.42h2.98c.4833 0 .8232-.1212 1.0348-.3023.1996-.1709.3452-.4461.3452-.8977 0-.4521-.1461-.7342-.3485-.9105-.2127-.1853-.5522-.3095-1.0315-.3095zm5.5851-9.18h3.64v9.66c0 .7499.223 1.2997.5892 1.6621.3666.3628.9374.5979 1.7508.5979s1.3842-.2351 1.7508-.5979c.3663-.3624.5892-.9122.5892-1.6621v-9.66h3.64v9.54c0 1.7042-.5295 3.1544-1.5783 4.1778-1.0476 1.0224-2.5551 1.5622-4.4017 1.5622s-3.3541-.5398-4.4017-1.5622c-1.0487-1.0234-1.5783-2.4736-1.5783-4.1778z" fill="#000" fill-rule="evenodd"/></svg>
